<svg xmlns="http://www.w3.org/2000/svg" viewBox="0 0 496.35 488.08">
  <defs>
    <style>
      .a {
        fill: #313131;
      }

      .b {
        fill: #2c3a8d;
      }
    </style>
  </defs>
  <title>Asset 4</title>
  <g>
    <path class="a" d="M250.53,339.62c-.44-4.24-5.9-7.17-9.19-7.66-1.85-.27-11.86-1.35-17.11-1.91a102.88,102.88,0,0,0-12.1-25.11c2.71-4.29,8-12.6,9.3-14.7,2-3.21,2-9.68-.57-12.17-2.75-2.71-11.06-10.86-14-13.76s-9.11-1.76-12,0c-1.64,1-10.48,6.83-14.77,9.68a102.39,102.39,0,0,0-41.95-14.55c-1.56-4.93-4.4-13.91-5.13-16.23-1.14-3.62-6.13-7.74-9.67-7.41l-19.57,1.86c-4.24.4-7.21,5.84-7.73,9.13-.29,1.84-1.45,11.81-2.06,17.07a102.76,102.76,0,0,0-36.52,21.08l-15.86-7c-3.47-1.55-9.86-.53-12,2.35L18.1,296.13c-2.5,3.45-.39,9.28,1.73,11.85,1.21,1.45,8.12,9.15,11.61,13a102.33,102.33,0,0,0-7.69,28.76c-4.91,1.56-14,4.45-16.33,5.18-3.62,1.14-7.74,6.14-7.4,9.68.37,3.85,1.48,15.43,1.88,19.56s5.85,7.21,9.14,7.73c1.84.28,11.9,1.45,17.14,2.05a102.32,102.32,0,0,0,12.25,25.12l-9.14,14.54c-2,3.21-1.94,9.69.61,12.17C34.66,448.5,43,456.62,46,459.51s9.12,1.73,12,0c1.61-1,10.27-6.75,14.6-9.63a102.55,102.55,0,0,0,41.62,14.31c1.56,4.86,4.52,14.14,5.27,16.5,1.15,3.62,6.16,7.73,9.7,7.38l19.56-1.92c4.24-.41,7.19-5.86,7.7-9.15.29-1.86,1.45-12.08,2-17.28a102.93,102.93,0,0,0,36.3-21c4.6,2,13.71,6.14,16,7.17,3.46,1.56,9.86.58,12-2.29l11.63-15.84c2.52-3.44.44-9.27-1.68-11.85-1.23-1.5-8.43-9.6-11.8-13.39a102.54,102.54,0,0,0,7.6-28.16l16.79-5.47c3.61-1.17,7.69-6.19,7.32-9.74C252.17,355.32,251,343.75,250.53,339.62Zm-124.4,80.2a58,58,0,1,1,58-58A58,58,0,0,1,126.13,419.82Z"/>
    <path class="b" d="M487.17,198.12c-2.05-1.53-13.78-9.57-19.47-13.47a138.92,138.92,0,0,0,1.83-22.49c0-4.69-.24-9.31-.69-13.88l20.46-12.17c4.37-2.59,8.23-10.37,6.71-14.9l-8.42-25c-1.83-5.42-9.84-7.63-14.3-7.3-2.51.19-16.2,1.76-23.18,2.57a138.81,138.81,0,0,0-40.67-43.33c1.28-6.8,3.63-19.3,4.24-22.51.95-5-2.34-13-6.74-14.89L382.64.58c-5.27-2.21-12.23,2.33-14.93,5.9-1.55,2-9.7,13.75-13.63,19.41a138.78,138.78,0,0,0-56.63,2.34c-4.27-5.37-12.34-15.5-14.4-18.1-3.16-4-11.39-6.76-15.66-4.64L243.78,17.21c-5.12,2.54-6.24,10.77-5.31,15.14.53,2.48,4,15.93,5.7,22.71a138.63,138.63,0,0,0-26.82,29.15c-6.56-1.15-20.06-3.51-23.42-4.11-5-.89-13,2.49-14.8,6.92l-9.91,24.42c-2.15,5.3,2.48,12.2,6.08,14.86,2.09,1.54,14.15,9.73,19.77,13.53A139.86,139.86,0,0,0,194,176.37c-5.93,3.47-17.09,10-20,11.66-4.39,2.56-8.31,10.31-6.82,14.85,1.61,4.92,6.49,19.75,8.23,25s9.77,7.71,14.23,7.41c2.51-.17,16.08-1.62,23.09-2.38A138.93,138.93,0,0,0,253.21,276c-1.15,6.58-3.49,20-4.08,23.37-.88,5,2.51,13,6.93,14.8l24.44,9.87c5.3,2.14,12.2-2.49,14.85-6.09,1.52-2.07,9.49-13.84,13.35-19.56A138.83,138.83,0,0,0,365,296.17l14.43,18.09c3.17,4,11.4,6.74,15.67,4.62l23.6-11.75c5.12-2.54,6.22-10.78,5.28-15.15-.52-2.45-3.9-15.62-5.66-22.46a139,139,0,0,0,27.14-29.42l22.88,4.13c5,.91,13-2.43,14.83-6.85,2-4.79,7.91-19.22,10-24.37S490.76,200.79,487.17,198.12ZM331.4,247.36a85.2,85.2,0,1,1,85.2-85.2A85.2,85.2,0,0,1,331.4,247.36Z"/>
    <path class="b" d="M411,386.54c-1.29-.29-8.8-1.69-11.8-2.25A65.74,65.74,0,0,0,393,368.21l7.21-9.67c1.48-2,1.76-6.16.24-7.91L392,341c-1.82-2.08-5.81-1.59-7.75-.61-1.2.6-8.17,4.48-10.7,5.9A65.61,65.61,0,0,0,348,335.17c-.7-3-2.3-9.83-2.68-11.49-.56-2.4-3.58-5.32-5.89-5.28l-12.75.23c-2.77.05-5,3.42-5.47,5.53-.3,1.27-1.75,8.73-2.34,11.75a65.76,65.76,0,0,0-23.72,11.45l-10.72-5.77c-2.17-1.17-6.36-.84-7.85.92l-8.27,9.72c-1.79,2.1-.72,6,.53,7.75.79,1.12,5.83,7.67,7.5,9.85a65.48,65.48,0,0,0-6,17.14l-11.91,2.79c-2.39.56-5.31,3.58-5.27,5.89,0,2.51.19,10.06.24,12.76s3.43,5,5.53,5.45c1.35.32,9.52,1.9,12.19,2.42a65.36,65.36,0,0,0,6.23,15.62c-1.57,2.12-6.29,8.5-7.39,10-1.47,2-1.74,6.17-.21,7.9,1.65,1.89,6.64,7.56,8.42,9.58s5.82,1.57,7.75.59c1.27-.65,9-5,11.08-6.16a65.72,65.72,0,0,0,24.78,10.76c.59,2.48,2.46,10.37,2.88,12.17.57,2.4,3.6,5.31,5.91,5.26l12.75-.27c2.77-.05,5-3.43,5.45-5.54.31-1.36,1.91-9.7,2.4-12.28a65.72,65.72,0,0,0,23.34-11.1l11,6c2.16,1.18,6.35.87,7.86-.88l8.32-9.68c1.8-2.1.74-6-.5-7.75-.81-1.16-6.09-8.1-7.59-10.07a65.43,65.43,0,0,0,6-16.81l12-2.92c2.39-.58,5.29-3.63,5.23-5.94-.07-2.5-.27-10.06-.34-12.75S413.1,387,411,386.54Zm-75.92,49.62a36.27,36.27,0,1,1,36.27-36.27A36.27,36.27,0,0,1,335.07,436.16Z"/>
  </g>
</svg>
