<svg xmlns="http://www.w3.org/2000/svg" viewBox="0 0 491.37 493.54">
  <defs>
    <style>
      .a {
        fill: #1f3790;
      }

      .b {
        fill: #313131;
      }
    </style>
  </defs>
  <title>Asset 3</title>
  <g>
    <path class="a" d="M482,439.09,302.29,259.36a75,75,0,0,0-96.87-97l45,45a10.34,10.34,0,0,1,0,14.62L219.36,253a10.34,10.34,0,0,1-14.62,0L161,209.29a75,75,0,0,0,95.21,94.16L436.92,484.2a31.9,31.9,0,0,0,45.1,0h0A31.89,31.89,0,0,0,482,439.09Z"/>
    <path class="b" d="M449.84,198.68c-3.41-.91-22.46-5.18-31.72-7.25A191.35,191.35,0,0,0,409,161.8q-3.59-9-8-17.35c5.56-7.26,17-22.24,19.89-26,4.26-5.54,5.22-17.44,1-22.43L398.39,68.49c-5.09-6-16.44-4.72-22-2C373.32,68,356.65,77,348.17,81.57a190.91,190.91,0,0,0-74-34.52c-1.84-9.33-5.23-26.47-6.09-30.88C266.76,9.31,258.47.73,251.91.61L215.71,0c-7.86-.13-14.42,9.21-16,15.14-.93,3.4-5.36,22.49-7.49,31.71a190.86,190.86,0,0,0-71,31.88L93.54,63c-6.07-3.47-18-2.81-22.36,2.08-4.74,5.3-19,21.28-24.14,27-5.23,5.86-2.46,16.93,1,22,1.94,2.89,13.17,18.29,18.85,26.06A190.65,190.65,0,0,0,47.51,191c-9,1.88-27.38,5.75-32,6.7C8.69,199.13.21,207.53.18,214.08c0,7.12-.14,28.56-.18,36.21,0,7.86,9.39,14.31,15.33,15.86,3.46.9,23,5.19,32.13,7.18a191.79,191.79,0,0,0,17.26,47.16C58.93,328,48,342,45.23,345.55c-4.31,5.5-5.35,17.39-1.14,22.42l23.27,27.74c5,6,16.41,4.85,21.94,2.19,3.11-1.49,19.68-10.26,28.25-14.81a190.78,190.78,0,0,0,73.56,34.33c1.89,9,5.76,27.31,6.72,31.89,1.43,6.84,9.83,15.31,16.39,15.34l36.21.14c7.86,0,14.29-9.41,15.84-15.35.88-3.41,5-22.5,7.05-31.77a189.91,189.91,0,0,0,49-18.08l-55.37-55.37a117.08,117.08,0,1,1,77-75.25l55,55A191.09,191.09,0,0,0,418,273.52c9.19-1.89,26.8-5.5,31.28-6.4,6.85-1.39,15.37-9.75,15.44-16.3.07-7.12.27-28.56.35-36.21C465.16,206.75,455.77,200.26,449.84,198.68Z"/>
  </g>
</svg>
