<svg xmlns="http://www.w3.org/2000/svg" viewBox="0 0 503 473.83">
  <defs>
    <style>
      .a {
        fill: #2c3a8d;
      }

      .b {
        fill: #313131;
      }
    </style>
  </defs>
  <title>Asset 3</title>
  <g>
    <path class="a" d="M366.26,276.77V14.23A14.23,14.23,0,0,0,352,0H291.49a14.23,14.23,0,0,0-14.23,14.23V276.77Z"/>
    <path class="a" d="M503,219V89.63A14.63,14.63,0,0,0,488.37,75H428.63A14.63,14.63,0,0,0,414,89.63V219Z"/>
    <rect class="b" x="414" y="245.88" width="89" height="227.95"/>
    <rect class="b" x="277.26" y="303.67" width="89" height="170.16"/>
    <rect class="b" x="138.32" y="360.51" width="89" height="113.32"/>
    <rect class="b" y="302.72" width="89" height="171.1"/>
    <path class="a" d="M227.32,334V270a14,14,0,0,0-14-14H152.35a14,14,0,0,0-14,14V334Z"/>
    <path class="a" d="M89,275.88V189.64A14.63,14.63,0,0,0,74.36,175H14.64A14.63,14.63,0,0,0,0,189.64v86.24Z"/>
  </g>
</svg>
