<svg xmlns="http://www.w3.org/2000/svg" viewBox="0 0 129.01 75.14">
  <defs>
    <style>
      .a {
        fill: #2c3a8d;
      }
    </style>
  </defs>
  <title>logo-zmiev-trans</title>
  <g>
    <path class="a" d="M6.42,15.23c.49-.35,15.71-9.33,19-7.77-.83,3.85-3.94,16.05-4.54,16.4-.38.22-4.11,1.37-8,2.73C8.37,28.16,3.61,30,3.32,29.73,2.08,28.78,5.93,15.57,6.42,15.23Z"/>
    <path class="a" d="M2.8,34.19a2.94,2.94,0,0,1,.11-1,54.31,54.31,0,0,1,5.87-2.24c4.33-1.46,9.5-3,9.58-2.88s-.23,1.47-.31,1.55S2.8,34.19,2.8,34.19Z"/>
    <path class="a" d="M2.8,34.79l14.87-3.94-.43,1.53L5.07,36,17,33.18l-.43,1.55L7.34,37.32l9-1.87s-.23,1.56-.84,2a112.86,112.86,0,0,1-11,2.68A1.94,1.94,0,0,1,3,38.27C2.83,36.86,2.8,34.79,2.8,34.79Z"/>
    <polygon class="a" points="3.86 42.27 16.98 39.16 15.86 41.35 6.05 43.65 15.57 42.04 15.17 43.51 7.32 45.35 14.94 44.2 13.5 52.49 4.96 52.89 3.86 42.27"/>
    <path class="a" d="M2.11,44.66l.57.37.61,2.59s0,.26-.15.32A5.81,5.81,0,0,1,2,47.83Z"/>
    <polygon class="a" points="1.91 49.15 3.4 49.49 3.86 51.94 1.7 51.57 1.91 49.15"/>
    <path class="a" d="M15.77,47.37,17.21,47l-.08,2.19,1.9-.66s1.2-.47,1.12-1.33c0-.31-2.26.46-2.26.46v-.8s3.46-.75,3.74-.49-.69,1.93-1.32,2.42a31.23,31.23,0,0,1-4.78,1.58Z"/>
    <path class="a" d="M22.05,44s-1.43.21-2.85.51a26.47,26.47,0,0,1-2.85.59c-.29-.15.52-2.18.95-2.78s4.26-2.13,5.29-1.67C23.11,41,22.05,44,22.05,44Z"/>
    <path class="a" d="M0,61.23H129L127.79,59l-7.17,0c.89-.3,1.07-2.09,1.1-2.57l5.63-.56.09-1.46-3.77.06V53.15l5,.06,0-1.58L57.44,38.38,57,8.05,128,34.2l0-1.13L56.19,4.52l-2.69,0-.93-1.14S42.25,3.33,42,3.27C41,3,37.64,1.94,34.65,1.15,32.08.48,29.8,0,29.56,0a10.16,10.16,0,0,0-3.09,1.6C23.94,1.32,20,3,16.32,4.92c-4,2-7.76,4.35-9.14,5.9a11.56,11.56,0,0,0-1.43,3.1c13.23-7.46,17-8.45,20.08-8a9.93,9.93,0,0,1,.94-2.8,4.1,4.1,0,0,1,3.11-1.75,64.82,64.82,0,0,1,8,2c3.16,1,6.5,2.14,7.47,2.55,1.16.49,1.7.37,3.12,3.27.81,1.65,1.76,5.69,2.72,10.45a39.33,39.33,0,0,0-2.75-13.5s1.87,0,4.32,0C56,11.72,55,39.37,55,39.37l.45,1.75v3.13L51,43.85l.5,1.36,20.29,2.25s-.23,5.22-.27,6c-.09,2.18-.45,2-2.24,2-.47,0-15.73-.13-18.76-.13a45.57,45.57,0,0,0-.41-7c-.57-3.67-3.27-7-7.68-7-3.46,0-5.76,2.8-6.78,5.56a22.8,22.8,0,0,0-1.25,6.86s-6.37.11-7.86.11-1.24-1.57-1.24-1.57H29.6L31.85,49s.53,0,1.15,0c.19-2.13.74-6.87,5-10-4.58,1.69-5.86,8.93-5.86,8.93l-6.6.15s.09-7.3.2-8.17a27.65,27.65,0,0,0-.23-3.83l23.26,2.1L25.13,34.92s0-8-.13-10.25c-.15,2.68-.46,6-.72,10.21A6.91,6.91,0,0,0,18,37.65a7.86,7.86,0,0,1,4.44-1.8c1.59,0,2.2-.17,2.13,3.14-.09,3.76-.26,10.89-.24,11.91.06,2.79-.18,2.85-3.38,3.07S5.22,55.05,3.67,55.11A2.42,2.42,0,0,1,1,53.79C1.21,56,2.8,56.09,4.2,56.11c1.69,0,8.3,0,8.91,0A4.32,4.32,0,0,0,14.74,59h-13Zm119.28-7.64c.75,0,1.36,1.14,1.36,2.56s-.61,2.55-1.36,2.55-1.36-1.14-1.36-2.55S118.53,53.59,119.28,53.59Zm-4.36-.41c.82,0,1.48,1.25,1.48,2.79s-.66,2.79-1.48,2.79-1.49-1.25-1.49-2.79S114.1,53.18,114.92,53.18Zm-5.16-.45c.86,0,1.57,1.32,1.57,2.94s-.71,2.95-1.57,2.95-1.57-1.32-1.57-2.95S108.89,52.73,109.76,52.73Zm-29.69,3.6c2.29,0,6,.06,8.41.12a3.7,3.7,0,0,0,1.65,2.66l-12.36,0A3.38,3.38,0,0,0,80.07,56.33Zm-3.32-6.76c1.12,0,2,1.71,2,3.83s-.91,3.83-2,3.83-2-1.72-2-3.83S75.64,49.57,76.75,49.57ZM62.13,56.8h5.06a2.88,2.88,0,0,0,1.36,2.28H61.2A2.82,2.82,0,0,0,62.13,56.8ZM47.93,58c1,0,2.43,0,3,0a2.1,2.1,0,0,0,.93,1.1H46.62A3.79,3.79,0,0,0,47.93,58ZM43.24,45.94c1.86,0,3.38,2.46,3.38,5.49s-1.52,5.5-3.38,5.5-3.38-2.46-3.38-5.5S41.37,45.94,43.24,45.94Zm-17,10.94h8.09A4.21,4.21,0,0,0,35.55,59H25A2.85,2.85,0,0,0,26.28,56.88Z"/>
    <path class="a" d="M28.27,8.19s.47-2.65,1-2.88A9.08,9.08,0,0,1,32,5.84C35.94,7,42.7,9.46,43,9.8a9,9,0,0,1,.37,3.35c-.07.06-4.34-1.59-8.18-2.88C31.5,9,28.27,8.19,28.27,8.19Z"/>
    <path class="a" d="M32.9,11.37s8.59,3,8.74,3.08c1,.47,1.9.83,2,1.88,0,.47.4,7.33.4,7.33s-7.54-1.95-7.94-2a3.31,3.31,0,0,0-2.73.28,3.79,3.79,0,0,1-2.09.66c-.54,0-3.93-.23-4.29-.57-1-.92.43-9.68.43-9.68s0,6.69.17,7.61c.16.67,4.69.34,5-.41C33,18.44,32.9,11.37,32.9,11.37Z"/>
    <g>
      <path class="a" d="M69,25.65a3.92,3.92,0,0,1,1.33,1.56,11.73,11.73,0,0,1,.46,4,10.65,10.65,0,0,1-.39,3.41,2.49,2.49,0,0,1-1.45,1.58,4.7,4.7,0,0,1-2.75.08A6.62,6.62,0,0,1,63,34.79a5.09,5.09,0,0,1-1.55-2.3,16.4,16.4,0,0,1-.39-4.14V26.76l4.25,1.14,0,3.18a6.53,6.53,0,0,0,.14,1.65.74.74,0,0,0,.57.48.47.47,0,0,0,.62-.29,9.05,9.05,0,0,0,.13-2.22V29.36a5.1,5.1,0,0,0-.22-1.69,1.69,1.69,0,0,0-.63-.85,7.08,7.08,0,0,0-1.63-.64l0-2.85a7.69,7.69,0,0,0,1.82.41.57.57,0,0,0,.49-.43A4.17,4.17,0,0,0,66.74,22V20.91a3.81,3.81,0,0,0-.19-1.39A.88.88,0,0,0,66,19q-.42-.14-.57.15a3.45,3.45,0,0,0-.15,1.4v1.6L61,20.87v-1.7c0-1.91.36-3.07,1.12-3.48s1.91-.32,3.48.23a7,7,0,0,1,3.87,2.67,7.71,7.71,0,0,1,1,4,4.63,4.63,0,0,1-.33,2.17A2.31,2.31,0,0,1,69,25.65Z"/>
      <path class="a" d="M83.12,22.39l.26,17.16-3-.63L80.25,27l-1,11.62L77,38.18l-1.5-12.32.14,12-3.34-.72-.19-18.62,4.85,1.69c.16,1.12.31,2.43.48,3.93l.57,4.7.71-8Z"/>
      <path class="a" d="M91.55,41.3l-2.47-.53-.14-7.5-1.46,7.16-2.78-.59-.27-17,2.64.92.13,7.48,1.58-6.88,2.46.85Z"/>
      <path class="a" d="M92.39,25.62l4.54,1.58L97,30.25l-1.77-.57.06,2.94,1.66.5L97,36l-1.67-.45L95.41,39l2,.47.07,3.08-4.74-1Z"/>
      <path class="a" d="M97.85,27.52l2.51.88a5.82,5.82,0,0,1,1.74.88,3.43,3.43,0,0,1,1,1.44,8.72,8.72,0,0,1,.42,2.82,4,4,0,0,1-.2,1.7,1.13,1.13,0,0,1-1,.48,2.79,2.79,0,0,1,1.13,1.3,6.28,6.28,0,0,1,.34,2.18l0,1.34a7.77,7.77,0,0,1-.16,2.13,1.12,1.12,0,0,1-.64.83,4.35,4.35,0,0,1-1.92-.15l-2.92-.63Zm2.58,3.41.07,3.29.25.07c.24.07.39,0,.45-.14a6.78,6.78,0,0,0,.06-1.56,4.21,4.21,0,0,0-.1-1,.81.81,0,0,0-.22-.42A1.7,1.7,0,0,0,100.43,30.93Zm.13,5.61.09,4.17c.35.06.57,0,.66-.1a2.46,2.46,0,0,0,.12-1.09l0-1.38a3.18,3.18,0,0,0-.15-1.19A1.2,1.2,0,0,0,100.56,36.54Z"/>
      <path class="a" d="M110.56,32l.07,2.69-1.22-.39.3,10.94-2.12-.45-.3-11.18-1.3-.41-.07-2.82Z"/>
      <path class="a" d="M111,32.11l2,.69a3.67,3.67,0,0,1,1.21.63,2.33,2.33,0,0,1,.63.84,3.72,3.72,0,0,1,.31,1.07,18,18,0,0,1,.13,1.81l0,1.12a6.86,6.86,0,0,1-.09,1.75,1,1,0,0,1-.49.73,1.33,1.33,0,0,1-1,0l-.51-.14.15,5.33-2-.43Zm2,2.93.1,3.35.14,0q.27.09.36-.12a2.44,2.44,0,0,0,.08-.93l0-1.07a2.34,2.34,0,0,0-.15-.91A.79.79,0,0,0,113.05,35Z"/>
      <path class="a" d="M118.75,34.8l1.37,12.62-1.75-.37-.17-2.29-.62-.15,0,2.26-1.87-.4.54-12.55Zm-.66,7.73c-.13-1.45-.28-3.23-.43-5.35-.11,2.35-.16,4.08-.18,5.19Z"/>
      <path class="a" d="M123.68,36.52l.4,11.75-1.57-.34-.16-5-.48-.13.17,5.07-1.64-.35L120,35.24l1.64.57.14,4.28.48.15L122.12,36Z"/>
      <path class="a" d="M127.85,42.78l-1.42-.41-.07-2a8.79,8.79,0,0,0-.08-1.09.36.36,0,0,0-.21-.28c-.12,0-.2,0-.22.18a7.22,7.22,0,0,0,0,1.12l.18,5.33a7.32,7.32,0,0,0,.09,1.1c0,.18.12.29.23.31s.17,0,.2-.2a8,8,0,0,0,0-1.19l0-1.44,1.42.39v.43a17.61,17.61,0,0,1,0,2.45,2.21,2.21,0,0,1-.48,1.17,1,1,0,0,1-1,.34,1.79,1.79,0,0,1-1.08-.71,3.41,3.41,0,0,1-.61-1.46,18.79,18.79,0,0,1-.23-2.61l-.12-3.41c0-.84,0-1.47,0-1.88a3.6,3.6,0,0,1,.22-1.12,1.27,1.27,0,0,1,.55-.71,1,1,0,0,1,.83,0,2.16,2.16,0,0,1,1.07.86,3.91,3.91,0,0,1,.57,1.43,16.89,16.89,0,0,1,.21,2.35Z"/>
    </g>
    <g>
      <polygon class="a" points="3.34 71.49 2.95 72.08 2.94 71.56 2.94 67.79 1.48 67.79 1.48 75 2.63 75 4.94 71.23 5.32 70.64 5.32 71.16 5.32 75 6.79 75 6.79 67.79 5.65 67.79 3.34 71.49"/>
      <path class="a" d="M11.71,71.18v-.06a1.56,1.56,0,0,0,.81-.67,2.1,2.1,0,0,0,.25-1,2,2,0,0,0-.19-.9,1.47,1.47,0,0,0-.5-.55,2.3,2.3,0,0,0-.72-.28,4.83,4.83,0,0,0-.86-.07q-.3,0-.6,0l-.55.1-.47.13-.33.14.37,1.12A2.39,2.39,0,0,1,9.46,69a2.55,2.55,0,0,1,.74-.11,1.27,1.27,0,0,1,.76.2.8.8,0,0,1,.27.7.78.78,0,0,1-.22.58,1.06,1.06,0,0,1-.53.31,1.15,1.15,0,0,1-.41.06H9.36v1H10a2,2,0,0,1,1.12.28.88.88,0,0,1,.32.75,1,1,0,0,1-.35.86,1.24,1.24,0,0,1-.82.28,3.49,3.49,0,0,1-.91-.11,3.82,3.82,0,0,1-.61-.21l-.38,1.15A2.71,2.71,0,0,0,9.2,75a5.86,5.86,0,0,0,1.15.1,4.07,4.07,0,0,0,1-.12,2.71,2.71,0,0,0,.84-.39,2,2,0,0,0,.58-.69,2.28,2.28,0,0,0,.22-1,1.9,1.9,0,0,0-.33-1.18A1.65,1.65,0,0,0,11.71,71.18Z"/>
      <polygon class="a" points="14.72 75 16.18 75 16.18 68.98 18.7 68.98 18.7 67.79 14.72 67.79 14.72 75"/>
      <path class="a" d="M24.75,68.66a2.23,2.23,0,0,0-.89-.75,2.93,2.93,0,0,0-1.3-.26,2.52,2.52,0,0,0-2.16.95,4.67,4.67,0,0,0-.71,2.79,6.71,6.71,0,0,0,.16,1.55,3.4,3.4,0,0,0,.51,1.19,2.4,2.4,0,0,0,.89.75,3.06,3.06,0,0,0,1.31.26,2.52,2.52,0,0,0,2.15-1,4.53,4.53,0,0,0,.73-2.79,6.75,6.75,0,0,0-.17-1.55A3.44,3.44,0,0,0,24.75,68.66Zm-1.18,4.68a1.1,1.1,0,0,1-1,.61,1,1,0,0,1-.62-.2,1.5,1.5,0,0,1-.42-.53,3.38,3.38,0,0,1-.23-.81,7.91,7.91,0,0,1-.07-1c0-1.7.45-2.55,1.34-2.55a1,1,0,0,1,.64.2,1.56,1.56,0,0,1,.41.55,3.38,3.38,0,0,1,.23.81,7.74,7.74,0,0,1,.06,1A4.3,4.3,0,0,1,23.57,73.34Z"/>
      <polygon class="a" points="26.44 68.98 28.36 68.98 28.36 75 29.83 75 29.83 68.98 31.74 68.98 31.74 67.79 26.44 67.79 26.44 68.98"/>
      <path class="a" d="M37.81,68.66a2.26,2.26,0,0,0-.9-.75,2.9,2.9,0,0,0-1.3-.26,2.52,2.52,0,0,0-2.16.95,4.67,4.67,0,0,0-.71,2.79,6.69,6.69,0,0,0,.17,1.55,3.07,3.07,0,0,0,.51,1.19,2.37,2.37,0,0,0,.88.75,3.06,3.06,0,0,0,1.31.26,2.55,2.55,0,0,0,2.16-1,4.6,4.6,0,0,0,.72-2.79,6.24,6.24,0,0,0-.17-1.55A3.43,3.43,0,0,0,37.81,68.66Zm-1.19,4.68a1.09,1.09,0,0,1-1,.61,1,1,0,0,1-.62-.2,1.48,1.48,0,0,1-.41-.53,2.66,2.66,0,0,1-.23-.81,6.45,6.45,0,0,1-.07-1c0-1.7.44-2.55,1.33-2.55a1,1,0,0,1,.64.2,1.45,1.45,0,0,1,.41.55,3,3,0,0,1,.23.81,6.24,6.24,0,0,1,.07,1A4.15,4.15,0,0,1,36.62,73.34Z"/>
      <path class="a" d="M44.7,71.74a1.44,1.44,0,0,0-.43-.34,2.37,2.37,0,0,0-.53-.18v-.06a1.71,1.71,0,0,0,.54-.27,1.6,1.6,0,0,0,.37-.41,1.74,1.74,0,0,0,.2-.49,2.39,2.39,0,0,0,.06-.53,1.68,1.68,0,0,0-.21-.89,1.39,1.39,0,0,0-.56-.54,2.47,2.47,0,0,0-.82-.27,6.28,6.28,0,0,0-1-.07c-.38,0-.75,0-1.13,0s-.69.07-.94.11V75a4.71,4.71,0,0,0,.58.09l.61,0,.55,0h.42a4.28,4.28,0,0,0,1-.12,2.6,2.6,0,0,0,.86-.39,2,2,0,0,0,.58-.66,2.06,2.06,0,0,0,.21-1,2.22,2.22,0,0,0-.11-.72A1.44,1.44,0,0,0,44.7,71.74Zm-3-2.89a3.61,3.61,0,0,1,.68,0,1.4,1.4,0,0,1,.41,0,.84.84,0,0,1,.33.15.82.82,0,0,1,.22.29,1.26,1.26,0,0,1,.08.46,1,1,0,0,1-.24.67,1.44,1.44,0,0,1-.57.37l-.28,0-.29,0h-.34Zm1.53,4.85a1.16,1.16,0,0,1-.8.28l-.41,0a1.58,1.58,0,0,1-.32,0v-2h.59a3.48,3.48,0,0,1,.47,0,.83.83,0,0,1,.4.14.71.71,0,0,1,.28.31,1.15,1.15,0,0,1,.11.54A1,1,0,0,1,43.26,73.7Z"/>
      <path class="a" d="M47.68,70c0,.63-.06,1.18-.11,1.64a9.29,9.29,0,0,1-.18,1.13,2.12,2.12,0,0,1-.25.66.58.58,0,0,1-.76.33l-.17,1.17a1.42,1.42,0,0,0,.35.11,1.91,1.91,0,0,0,.43,0,1.42,1.42,0,0,0,.34,0,1.45,1.45,0,0,0,.37-.12,1.56,1.56,0,0,0,.36-.25,1.63,1.63,0,0,0,.31-.4,5.07,5.07,0,0,0,.54-2c.09-.87.17-2,.22-3.27h1.23v6h1.46V67.79H47.75C47.73,68.63,47.71,69.36,47.68,70Z"/>
      <polygon class="a" points="55.26 71.95 57.62 71.95 57.62 70.75 55.26 70.75 55.26 68.98 57.86 68.98 57.86 67.79 53.8 67.79 53.8 75 57.91 75 57.91 73.8 55.26 73.8 55.26 71.95"/>
      <polygon class="a" points="63.39 70.75 61.17 70.75 61.17 67.79 59.71 67.79 59.71 75 61.17 75 61.17 71.95 63.39 71.95 63.39 75 64.85 75 64.85 67.79 63.39 67.79 63.39 70.75"/>
      <polygon class="a" points="75.55 71.95 77.91 71.95 77.91 70.75 75.55 70.75 75.55 68.98 78.15 68.98 78.15 67.79 74.09 67.79 74.09 75 78.2 75 78.2 73.8 75.55 73.8 75.55 71.95"/>
      <polygon class="a" points="86.31 71.19 88.41 67.79 86.76 67.79 84.76 70.98 84.76 67.79 83.3 67.79 83.3 75 84.76 75 84.76 71.91 84.94 71.91 86.92 75 88.71 75 86.31 71.19"/>
      <path class="a" d="M92.43,71.44,91,67.79H89.23l2.51,5.3c-.11.52-.31.78-.59.78a1.18,1.18,0,0,1-.27,0,1.83,1.83,0,0,1-.29-.11l-.36,1.09a1.7,1.7,0,0,0,.47.2,2.76,2.76,0,0,0,.54,0,1.31,1.31,0,0,0,1.16-.57,3.59,3.59,0,0,0,.41-.71q.18-.44.39-1l1.81-5H93.5Z"/>
      <path class="a" d="M99.27,71.18v-.06a1.5,1.5,0,0,0,.8-.67,2.18,2.18,0,0,0,.07-1.88,1.56,1.56,0,0,0-.5-.55,2.27,2.27,0,0,0-.73-.28,4.72,4.72,0,0,0-.85-.07q-.3,0-.6,0l-.56.1-.47.13a2.11,2.11,0,0,0-.32.14l.37,1.12A2.39,2.39,0,0,1,97,69a2.5,2.5,0,0,1,.74-.11,1.32,1.32,0,0,1,.76.2.8.8,0,0,1,.27.7.78.78,0,0,1-.22.58,1.13,1.13,0,0,1-.54.31,1.09,1.09,0,0,1-.4.06h-.71v1h.64a2,2,0,0,1,1.12.28.91.91,0,0,1,.32.75,1,1,0,0,1-.35.86,1.26,1.26,0,0,1-.82.28,3.57,3.57,0,0,1-.92-.11,3.82,3.82,0,0,1-.61-.21l-.38,1.15a2.88,2.88,0,0,0,.84.26,5.86,5.86,0,0,0,1.15.1,3.93,3.93,0,0,0,1-.12,2.88,2.88,0,0,0,.85-.39,2.06,2.06,0,0,0,.58-.69,2.28,2.28,0,0,0,.21-1,1.9,1.9,0,0,0-.33-1.18A1.59,1.59,0,0,0,99.27,71.18Z"/>
      <path class="a" d="M107.15,68.66a2.23,2.23,0,0,0-.89-.75,2.93,2.93,0,0,0-1.3-.26,2.52,2.52,0,0,0-2.16.95,4.6,4.6,0,0,0-.71,2.79,6.71,6.71,0,0,0,.16,1.55,3.4,3.4,0,0,0,.51,1.19,2.4,2.4,0,0,0,.89.75,3.06,3.06,0,0,0,1.31.26,2.52,2.52,0,0,0,2.15-1,4.59,4.59,0,0,0,.73-2.79,6.75,6.75,0,0,0-.17-1.55A3.44,3.44,0,0,0,107.15,68.66ZM106,73.34a1.1,1.1,0,0,1-1,.61,1,1,0,0,1-.63-.2,1.6,1.6,0,0,1-.41-.53,3,3,0,0,1-.23-.81,6.45,6.45,0,0,1-.07-1c0-1.7.45-2.55,1.34-2.55a1.06,1.06,0,0,1,.64.2,1.56,1.56,0,0,1,.41.55,3,3,0,0,1,.22.81,6.24,6.24,0,0,1,.07,1A4.3,4.3,0,0,1,106,73.34Z"/>
      <path class="a" d="M114.05,71.74a1.48,1.48,0,0,0-.44-.34,2.28,2.28,0,0,0-.52-.18v-.06a2,2,0,0,0,.54-.27,1.4,1.4,0,0,0,.36-.41,1.74,1.74,0,0,0,.2-.49,1.93,1.93,0,0,0,.07-.53,1.68,1.68,0,0,0-.21-.89,1.53,1.53,0,0,0-.56-.54,2.53,2.53,0,0,0-.83-.27,6.19,6.19,0,0,0-1-.07c-.37,0-.75,0-1.12,0s-.69.07-1,.11V75a4.71,4.71,0,0,0,.58.09l.61,0,.56,0h.41a4.36,4.36,0,0,0,1-.12,2.55,2.55,0,0,0,.85-.39,1.85,1.85,0,0,0,.58-.66,2.06,2.06,0,0,0,.22-1,2.22,2.22,0,0,0-.11-.72A1.81,1.81,0,0,0,114.05,71.74Zm-3-2.89a3.49,3.49,0,0,1,.67,0,1.36,1.36,0,0,1,.41,0,.84.84,0,0,1,.33.15.64.64,0,0,1,.22.29,1.08,1.08,0,0,1,.09.46,1,1,0,0,1-.24.67,1.41,1.41,0,0,1-.58.37l-.27,0-.3,0h-.33Zm1.53,4.85a1.2,1.2,0,0,1-.8.28l-.41,0a1.48,1.48,0,0,1-.32,0v-2h.59a3.59,3.59,0,0,1,.47,0,.91.91,0,0,1,.4.14.71.71,0,0,1,.28.31,1.16,1.16,0,0,1,.1.54A1,1,0,0,1,112.61,73.7Z"/>
      <path class="a" d="M121.1,68.66a2.19,2.19,0,0,0-.9-.75,2.87,2.87,0,0,0-1.3-.26,2.55,2.55,0,0,0-2.16.95,4.67,4.67,0,0,0-.7,2.79,6.71,6.71,0,0,0,.16,1.55,3.4,3.4,0,0,0,.51,1.19,2.4,2.4,0,0,0,.89.75,3,3,0,0,0,1.3.26,2.54,2.54,0,0,0,2.16-1,4.6,4.6,0,0,0,.72-2.79,6.77,6.77,0,0,0-.16-1.55A3.64,3.64,0,0,0,121.1,68.66Zm-1.19,4.68a1.09,1.09,0,0,1-1,.61,1,1,0,0,1-.62-.2,1.6,1.6,0,0,1-.41-.53,2.66,2.66,0,0,1-.23-.81,6.45,6.45,0,0,1-.07-1c0-1.7.44-2.55,1.33-2.55a1,1,0,0,1,.64.2,1.45,1.45,0,0,1,.41.55,3,3,0,0,1,.23.81,6.24,6.24,0,0,1,.07,1A4.15,4.15,0,0,1,119.91,73.34Z"/>
      <path class="a" d="M128,71.74a1.62,1.62,0,0,0-.44-.34,2.21,2.21,0,0,0-.53-.18v-.06a1.71,1.71,0,0,0,.54-.27,1.44,1.44,0,0,0,.37-.41,1.74,1.74,0,0,0,.2-.49,1.93,1.93,0,0,0,.07-.53,1.68,1.68,0,0,0-.21-.89,1.48,1.48,0,0,0-.57-.54,2.47,2.47,0,0,0-.82-.27,6.19,6.19,0,0,0-1-.07c-.37,0-.75,0-1.12,0s-.69.07-1,.11V75a4.71,4.71,0,0,0,.58.09l.61,0,.55,0h.42a4.22,4.22,0,0,0,1-.12,2.6,2.6,0,0,0,.86-.39,1.85,1.85,0,0,0,.58-.66,2.06,2.06,0,0,0,.21-1,2,2,0,0,0-.11-.72A1.58,1.58,0,0,0,128,71.74Zm-3-2.89a3.68,3.68,0,0,1,.68,0,1.36,1.36,0,0,1,.41,0,.84.84,0,0,1,.33.15.72.72,0,0,1,.22.29,1.08,1.08,0,0,1,.08.46,1,1,0,0,1-.23.67,1.48,1.48,0,0,1-.58.37l-.27,0-.3,0H125Zm1.54,4.85a1.2,1.2,0,0,1-.8.28l-.42,0a1.69,1.69,0,0,1-.32,0v-2h.6a3.59,3.59,0,0,1,.47,0,.91.91,0,0,1,.4.14.77.77,0,0,1,.28.31,1.16,1.16,0,0,1,.1.54A1,1,0,0,1,126.56,73.7Z"/>
      <polygon class="a" points="68.68 71.48 68.29 72.08 68.29 71.56 68.29 67.79 66.82 67.79 66.82 74.99 67.97 74.99 70.28 71.22 70.67 70.63 70.67 71.15 70.67 74.99 72.13 74.99 72.13 67.79 70.99 67.79 68.68 71.48"/>
    </g>
  </g>
</svg>
